<?xml version="1.0" standalone="no"?>
<!DOCTYPE svg PUBLIC "-//W3C//DTD SVG 20010904//EN"
 "http://www.w3.org/TR/2001/REC-SVG-20010904/DTD/svg10.dtd">
<!-- Generator: Adobe Illustrator 25.2.1, SVG Export Plug-In  -->
<svg version="1.1" xmlns="http://www.w3.org/2000/svg" xmlns:xlink="http://www.w3.org/1999/xlink" x="0px" y="0px"
	 width="206.83px" height="47px" viewBox="0 0 206.83 47" style="overflow:visible;enable-background:new 0 0 206.83 47;"
	 xml:space="preserve">
<style type="text/css">
	.st0{fill:#E7F7EF;}
</style>
<defs>
</defs>
<g>
	<g>
		<g>
			<path class="st0" d="M23.53,20.33L8.28,46.66C8.16,46.87,7.93,47,7.69,47h-7c-0.53,0-0.86-0.58-0.6-1.04l15.24-26.33
				c0.12-0.21,0.35-0.34,0.6-0.34h7C23.46,19.29,23.79,19.87,23.53,20.33z"/>
		</g>
	</g>
	<g>
		<g>
			<path class="st0" d="M155.31,20.33l-15.24,26.33c-0.12,0.21-0.35,0.34-0.6,0.34h-6.99c-0.53,0-0.86-0.58-0.6-1.04l15.24-26.33
				c0.12-0.21,0.35-0.34,0.6-0.34h6.99C155.24,19.29,155.57,19.87,155.31,20.33z"/>
		</g>
	</g>
	<g>
		<g>
			<path class="st0" d="M81.48,19.29l-1.16,2h-0.29c-6.33,0-22.47,17.97-26.52,24.96L53.08,47h-7.39c-0.53,0-0.86-0.58-0.6-1.04
				l15.24-26.33c0.12-0.21,0.35-0.34,0.6-0.34h7c0.53,0,0.86,0.58,0.6,1.04l-5.27,9.11c-0.4,0.7,0.51,1.41,1.08,0.83
				c5.57-5.6,12.12-10.98,16.28-10.98H81.48z"/>
		</g>
	</g>
	<g>
		<g>
			<path class="st0" d="M48.46,19.29c-0.19,0-0.37,0.01-0.57,0.03c-3.86,0.41-9.92,5.13-15.68,10.9c-0.57,0.57-1.49-0.13-1.08-0.83
				L47.55,1.04C47.81,0.58,47.48,0,46.95,0h-6.99c-0.25,0-0.47,0.13-0.6,0.34L12.95,45.96c-0.27,0.46,0.07,1.04,0.6,1.04h26.28
				c0.25,0,0.47-0.13,0.6-0.34l15.24-26.33c0.27-0.46-0.07-1.04-0.6-1.04H48.46z M22.73,44.17c4.43-6.39,14.86-18.04,21.65-21.73
				c0.62-0.34,1.28,0.34,0.93,0.95L32.85,44.91c-0.12,0.21-0.35,0.34-0.6,0.34H23.3C22.74,45.25,22.41,44.63,22.73,44.17z"/>
		</g>
	</g>
	<g>
		<g>
			<path class="st0" d="M142.46,20.33l-15.24,26.33c-0.12,0.21-0.35,0.34-0.6,0.34h-6.99c-0.53,0-0.86-0.58-0.6-1.04l13.07-22.58
				c0.35-0.61-0.32-1.28-0.94-0.95c-7.61,4.13-19.78,18.24-23.01,23.81L107.72,47h-7.38c-0.53,0-0.86-0.58-0.6-1.04l26.4-45.62
				c0.12-0.21,0.35-0.34,0.6-0.34h6.99c0.53,0,0.86,0.58,0.6,1.04L117.91,29.4c-0.4,0.7,0.51,1.4,1.08,0.83
				c5.76-5.78,11.82-10.49,15.69-10.9c0.2-0.02,0.38-0.03,0.57-0.03h6.6C142.39,19.29,142.72,19.87,142.46,20.33z"/>
		</g>
	</g>
	<g>
		<g>
			<path class="st0" d="M82.84,19.63L67.59,45.96c-0.27,0.46,0.07,1.04,0.6,1.04h6.6c0.19,0,0.37-0.01,0.57-0.03
				c3.87-0.41,9.93-5.12,15.69-10.9c0.57-0.57,1.49,0.13,1.08,0.83l-5.25,9.06c-0.27,0.46,0.07,1.04,0.6,1.04h6.99
				c0.25,0,0.47-0.13,0.6-0.34l15.24-26.33c0.27-0.46-0.07-1.04-0.6-1.04H83.43C83.19,19.29,82.96,19.42,82.84,19.63z M77.96,42.9
				l12.46-21.51c0.12-0.21,0.35-0.34,0.6-0.34h8.97c0.56,0,0.89,0.62,0.57,1.08c-4.44,6.39-14.88,18.04-21.66,21.73
				C78.27,44.18,77.6,43.5,77.96,42.9z"/>
		</g>
	</g>
	<g>
		<g>
			<path class="st0" d="M206.74,20.33l-15.24,26.33c-0.12,0.21-0.35,0.34-0.6,0.34h-7c-0.53,0-0.86-0.58-0.6-1.04l13.07-22.58
				c0.35-0.61-0.32-1.28-0.94-0.95c-7.61,4.14-19.76,18.24-22.99,23.81L172.01,47h-7.38c-0.53,0-0.86-0.58-0.6-1.04l13.07-22.58
				c0.35-0.61-0.32-1.28-0.94-0.95c-7.61,4.13-19.78,18.24-23.01,23.81L152.72,47h-7.38c-0.53,0-0.86-0.58-0.6-1.04l15.23-26.33
				c0.12-0.21,0.35-0.34,0.6-0.34h7c0.53,0,0.86,0.58,0.6,1.04l-5.25,9.07c-0.4,0.7,0.51,1.4,1.08,0.83
				c5.76-5.77,11.82-10.49,15.68-10.9c0.2-0.02,0.38-0.03,0.57-0.03h6.6c0.53,0,0.86,0.58,0.6,1.04l-5.25,9.07
				c-0.4,0.7,0.51,1.4,1.08,0.83c5.76-5.77,11.82-10.49,15.67-10.9c0.2-0.02,0.38-0.03,0.57-0.03h6.6
				C206.67,19.29,207,19.87,206.74,20.33z"/>
		</g>
	</g>
</g>
</svg>
